<mxfile host="app.diagrams.net" agent="Mozilla/5.0 (X11; Ubuntu; Linux x86_64; rv:137.0) Gecko/20100101 Firefox/137.0" version="26.2.14">
  <diagram name="PÃ¡gina-1" id="A6TI8llUdkdeHuoaHMAh">
    <mxGraphModel dx="1591" dy="1396" grid="0" gridSize="10" guides="1" tooltips="1" connect="1" arrows="1" fold="1" page="0" pageScale="1" pageWidth="827" pageHeight="1169" math="0" shadow="0">
      <root>
        <mxCell id="0" />
        <mxCell id="1" parent="0" />
        <mxCell id="N1Ox-A4492enPdx1nB-i-3" value="" style="edgeStyle=none;curved=1;rounded=0;orthogonalLoop=1;jettySize=auto;html=1;fontSize=12;startSize=8;endSize=8;" edge="1" parent="1" source="N1Ox-A4492enPdx1nB-i-1" target="N1Ox-A4492enPdx1nB-i-2">
          <mxGeometry relative="1" as="geometry" />
        </mxCell>
        <mxCell id="N1Ox-A4492enPdx1nB-i-1" value="inicio" style="ellipse;whiteSpace=wrap;html=1;" vertex="1" parent="1">
          <mxGeometry x="156" y="-161" width="120" height="80" as="geometry" />
        </mxCell>
        <mxCell id="N1Ox-A4492enPdx1nB-i-5" value="" style="edgeStyle=none;curved=1;rounded=0;orthogonalLoop=1;jettySize=auto;html=1;fontSize=12;startSize=8;endSize=8;" edge="1" parent="1" source="N1Ox-A4492enPdx1nB-i-2" target="N1Ox-A4492enPdx1nB-i-4">
          <mxGeometry relative="1" as="geometry" />
        </mxCell>
        <mxCell id="N1Ox-A4492enPdx1nB-i-2" value="numero secreto=7" style="shape=parallelogram;perimeter=parallelogramPerimeter;whiteSpace=wrap;html=1;fixedSize=1;" vertex="1" parent="1">
          <mxGeometry x="156" y="49" width="120" height="60" as="geometry" />
        </mxCell>
        <mxCell id="N1Ox-A4492enPdx1nB-i-8" value="" style="edgeStyle=none;curved=1;rounded=0;orthogonalLoop=1;jettySize=auto;html=1;fontSize=12;startSize=8;endSize=8;" edge="1" parent="1" source="N1Ox-A4492enPdx1nB-i-4" target="N1Ox-A4492enPdx1nB-i-7">
          <mxGeometry relative="1" as="geometry" />
        </mxCell>
        <mxCell id="N1Ox-A4492enPdx1nB-i-4" value="ingrese numero que cree que es:" style="shape=parallelogram;perimeter=parallelogramPerimeter;whiteSpace=wrap;html=1;fixedSize=1;" vertex="1" parent="1">
          <mxGeometry x="133.5" y="147" width="165" height="60" as="geometry" />
        </mxCell>
        <mxCell id="N1Ox-A4492enPdx1nB-i-10" value="" style="edgeStyle=none;curved=1;rounded=0;orthogonalLoop=1;jettySize=auto;html=1;fontSize=12;startSize=8;endSize=8;" edge="1" parent="1" source="N1Ox-A4492enPdx1nB-i-7" target="N1Ox-A4492enPdx1nB-i-9">
          <mxGeometry relative="1" as="geometry" />
        </mxCell>
        <mxCell id="N1Ox-A4492enPdx1nB-i-11" value="si" style="edgeLabel;html=1;align=center;verticalAlign=middle;resizable=0;points=[];fontSize=12;" vertex="1" connectable="0" parent="N1Ox-A4492enPdx1nB-i-10">
          <mxGeometry x="-0.2871" y="2" relative="1" as="geometry">
            <mxPoint x="1" y="1" as="offset" />
          </mxGeometry>
        </mxCell>
        <mxCell id="N1Ox-A4492enPdx1nB-i-13" value="" style="edgeStyle=none;curved=1;rounded=0;orthogonalLoop=1;jettySize=auto;html=1;fontSize=12;startSize=8;endSize=8;" edge="1" parent="1" source="N1Ox-A4492enPdx1nB-i-7">
          <mxGeometry relative="1" as="geometry">
            <mxPoint x="-15" y="373" as="targetPoint" />
          </mxGeometry>
        </mxCell>
        <mxCell id="N1Ox-A4492enPdx1nB-i-14" value="no" style="edgeLabel;html=1;align=center;verticalAlign=middle;resizable=0;points=[];fontSize=12;" vertex="1" connectable="0" parent="N1Ox-A4492enPdx1nB-i-13">
          <mxGeometry x="-0.0726" y="2" relative="1" as="geometry">
            <mxPoint as="offset" />
          </mxGeometry>
        </mxCell>
        <mxCell id="N1Ox-A4492enPdx1nB-i-7" value="numero ingresado mayor a numero secreto" style="rhombus;whiteSpace=wrap;html=1;" vertex="1" parent="1">
          <mxGeometry x="127.5" y="277" width="177" height="183" as="geometry" />
        </mxCell>
        <mxCell id="N1Ox-A4492enPdx1nB-i-9" value="Imprima numero es mayor" style="shape=parallelogram;perimeter=parallelogramPerimeter;whiteSpace=wrap;html=1;fixedSize=1;" vertex="1" parent="1">
          <mxGeometry x="453" y="338.5" width="120" height="60" as="geometry" />
        </mxCell>
        <mxCell id="N1Ox-A4492enPdx1nB-i-18" value="" style="edgeStyle=none;curved=1;rounded=0;orthogonalLoop=1;jettySize=auto;html=1;fontSize=12;startSize=8;endSize=8;" edge="1" parent="1" source="N1Ox-A4492enPdx1nB-i-16" target="N1Ox-A4492enPdx1nB-i-17">
          <mxGeometry relative="1" as="geometry" />
        </mxCell>
        <mxCell id="N1Ox-A4492enPdx1nB-i-19" value="si" style="edgeLabel;html=1;align=center;verticalAlign=middle;resizable=0;points=[];fontSize=12;" vertex="1" connectable="0" parent="N1Ox-A4492enPdx1nB-i-18">
          <mxGeometry x="-0.0495" y="3" relative="1" as="geometry">
            <mxPoint as="offset" />
          </mxGeometry>
        </mxCell>
        <mxCell id="N1Ox-A4492enPdx1nB-i-21" value="" style="edgeStyle=none;curved=1;rounded=0;orthogonalLoop=1;jettySize=auto;html=1;fontSize=12;startSize=8;endSize=8;" edge="1" parent="1" source="N1Ox-A4492enPdx1nB-i-16" target="N1Ox-A4492enPdx1nB-i-20">
          <mxGeometry relative="1" as="geometry" />
        </mxCell>
        <mxCell id="N1Ox-A4492enPdx1nB-i-23" value="no" style="edgeLabel;html=1;align=center;verticalAlign=middle;resizable=0;points=[];fontSize=12;" vertex="1" connectable="0" parent="N1Ox-A4492enPdx1nB-i-21">
          <mxGeometry x="0.1676" y="5" relative="1" as="geometry">
            <mxPoint as="offset" />
          </mxGeometry>
        </mxCell>
        <mxCell id="N1Ox-A4492enPdx1nB-i-16" value="Numero ingresado menor a numero secreto " style="rhombus;whiteSpace=wrap;html=1;" vertex="1" parent="1">
          <mxGeometry x="-219" y="285" width="206" height="175" as="geometry" />
        </mxCell>
        <mxCell id="N1Ox-A4492enPdx1nB-i-24" style="edgeStyle=none;curved=1;rounded=0;orthogonalLoop=1;jettySize=auto;html=1;entryX=0;entryY=0;entryDx=0;entryDy=0;fontSize=12;startSize=8;endSize=8;" edge="1" parent="1" source="N1Ox-A4492enPdx1nB-i-17" target="N1Ox-A4492enPdx1nB-i-22">
          <mxGeometry relative="1" as="geometry" />
        </mxCell>
        <mxCell id="N1Ox-A4492enPdx1nB-i-17" value="imprima numero es menor al numero secreto " style="shape=parallelogram;perimeter=parallelogramPerimeter;whiteSpace=wrap;html=1;fixedSize=1;" vertex="1" parent="1">
          <mxGeometry x="-205" y="561" width="178" height="75" as="geometry" />
        </mxCell>
        <mxCell id="N1Ox-A4492enPdx1nB-i-20" value="imprima numero es igual al numero secreto " style="shape=parallelogram;perimeter=parallelogramPerimeter;whiteSpace=wrap;html=1;fixedSize=1;" vertex="1" parent="1">
          <mxGeometry x="-583" y="342.5" width="201" height="60" as="geometry" />
        </mxCell>
        <mxCell id="N1Ox-A4492enPdx1nB-i-22" value="fin" style="ellipse;whiteSpace=wrap;html=1;" vertex="1" parent="1">
          <mxGeometry x="166" y="655" width="120" height="80" as="geometry" />
        </mxCell>
        <mxCell id="N1Ox-A4492enPdx1nB-i-25" style="edgeStyle=none;curved=1;rounded=0;orthogonalLoop=1;jettySize=auto;html=1;entryX=0.76;entryY=0.054;entryDx=0;entryDy=0;entryPerimeter=0;fontSize=12;startSize=8;endSize=8;" edge="1" parent="1" source="N1Ox-A4492enPdx1nB-i-9" target="N1Ox-A4492enPdx1nB-i-22">
          <mxGeometry relative="1" as="geometry" />
        </mxCell>
        <mxCell id="N1Ox-A4492enPdx1nB-i-26" style="edgeStyle=none;curved=1;rounded=0;orthogonalLoop=1;jettySize=auto;html=1;entryX=0.064;entryY=0.789;entryDx=0;entryDy=0;entryPerimeter=0;fontSize=12;startSize=8;endSize=8;" edge="1" parent="1" source="N1Ox-A4492enPdx1nB-i-20" target="N1Ox-A4492enPdx1nB-i-22">
          <mxGeometry relative="1" as="geometry">
            <Array as="points">
              <mxPoint x="-346" y="790" />
            </Array>
          </mxGeometry>
        </mxCell>
      </root>
    </mxGraphModel>
  </diagram>
</mxfile>
